<svg width="15" height="15" viewBox="0 0 15 15" fill="none" xmlns="http://www.w3.org/2000/svg">
<g clip-path="url(#clip0_47_131)">
<path d="M10.625 1.25H4.375C2.64911 1.25 1.25 2.64911 1.25 4.375V10.625C1.25 12.3509 2.64911 13.75 4.375 13.75H10.625C12.3509 13.75 13.75 12.3509 13.75 10.625V4.375C13.75 2.64911 12.3509 1.25 10.625 1.25Z" stroke="#A7A7A7" stroke-width="1.25" stroke-linecap="round" stroke-linejoin="round"/>
<path d="M10.0001 7.10625C10.0772 7.6264 9.98835 8.15763 9.74616 8.62438C9.50397 9.09113 9.12078 9.46963 8.65108 9.70604C8.18138 9.94246 7.64909 10.0247 7.12993 9.94121C6.61076 9.85767 6.13116 9.61255 5.75934 9.24072C5.38751 8.8689 5.14239 8.38929 5.05885 7.87013C4.97531 7.35097 5.0576 6.81868 5.29402 6.34898C5.53043 5.87928 5.90893 5.49609 6.37568 5.2539C6.84243 5.01171 7.37366 4.92287 7.89381 5C8.42439 5.07868 8.91559 5.32591 9.29487 5.70519C9.67415 6.08447 9.92138 6.57567 10.0001 7.10625Z" stroke="#A7A7A7" stroke-width="1.25" stroke-linecap="round" stroke-linejoin="round"/>
<path d="M10.9375 4.0625H10.9438" stroke="#A7A7A7" stroke-width="1.25" stroke-linecap="round" stroke-linejoin="round"/>
</g>
<defs>
<clipPath id="clip0_47_131">
<rect width="15" height="15" fill="white"/>
</clipPath>
</defs>
</svg>
