<svg width="14" height="14" viewBox="0 0 14 14" fill="none" xmlns="http://www.w3.org/2000/svg">
<path d="M4.3633 10.7042L6.17163 12.1042C6.40496 12.3375 6.92996 12.4542 7.27996 12.4542H9.49663C10.1966 12.4542 10.955 11.9292 11.13 11.2292L12.53 6.97083C12.8216 6.15416 12.2966 5.45416 11.4216 5.45416H9.0883C8.7383 5.45416 8.44663 5.16249 8.50496 4.75416L8.79663 2.88749C8.9133 2.36249 8.5633 1.77916 8.0383 1.60416C7.57163 1.42916 6.9883 1.66249 6.75496 2.01249L4.3633 5.57083" stroke="#4F4F4F" stroke-miterlimit="10"/>
<path d="M1.38835 10.7042V4.98748C1.38835 4.17082 1.73835 3.87915 2.55502 3.87915H3.13835C3.95502 3.87915 4.30502 4.17082 4.30502 4.98748V10.7042C4.30502 11.5208 3.95502 11.8125 3.13835 11.8125H2.55502C1.73835 11.8125 1.38835 11.5208 1.38835 10.7042Z" stroke="#4F4F4F" stroke-linecap="round" stroke-linejoin="round"/>
</svg>
