<svg width="14" height="14" viewBox="0 0 14 14" fill="none" xmlns="http://www.w3.org/2000/svg">
<path d="M13.4163 1.75C12.8577 2.14403 12.2392 2.4454 11.5847 2.6425C11.2334 2.23855 10.7665 1.95224 10.2471 1.82229C9.72777 1.69234 9.18105 1.72503 8.68089 1.91593C8.18073 2.10683 7.75127 2.44673 7.45058 2.88967C7.1499 3.3326 6.9925 3.85719 6.99967 4.3925V4.97583C5.97454 5.00241 4.95875 4.77506 4.04276 4.31401C3.12678 3.85296 2.33903 3.17254 1.74967 2.33333C1.74967 2.33333 -0.583659 7.58333 4.66634 9.91667C3.46498 10.7321 2.03385 11.141 0.583008 11.0833C5.83301 14 12.2497 11.0833 12.2497 4.375C12.2491 4.21251 12.2335 4.05043 12.203 3.89083C12.7984 3.3037 13.2185 2.56241 13.4163 1.75V1.75Z" stroke="#A7A7A7" stroke-width="1.16667" stroke-linecap="round" stroke-linejoin="round"/>
</svg>
